<svg id="Capa_1" enable-background="new 0 0 512 512" height="512" viewBox="0 0 512 512" width="512" xmlns="http://www.w3.org/2000/svg" xmlns:xlink="http://www.w3.org/1999/xlink"><linearGradient id="SVGID_1_" gradientUnits="userSpaceOnUse" x1="74.98" x2="437.019" y1="437.019" y2="74.98"><stop offset="0" stop-color="#8d00db"/><stop offset="1" stop-color="#fc54ff"/></linearGradient><radialGradient id="SVGID_2_" cx="256.001" cy="256" gradientUnits="userSpaceOnUse" r="258.6"><stop offset="0" stop-color="#8d00db" stop-opacity=".66"/><stop offset=".3184" stop-color="#8d00db" stop-opacity=".66"/><stop offset=".4562" stop-color="#9e0de1" stop-opacity=".527"/><stop offset=".7281" stop-color="#ca2eef" stop-opacity=".263"/><stop offset="1" stop-color="#fc54ff" stop-opacity="0"/></radialGradient><linearGradient id="SVGID_3_" gradientUnits="userSpaceOnUse" x1="220.431" x2="291.569" y1="432.732" y2="361.594"><stop offset="0" stop-color="#fc54ff"/><stop offset="1" stop-color="#fda0ff"/></linearGradient><linearGradient id="SVGID_4_" gradientUnits="userSpaceOnUse" x1="256" x2="256" y1="360.169" y2="415.386"><stop offset="0" stop-color="#b31de7"/><stop offset=".3983" stop-color="#d153f1" stop-opacity=".602"/><stop offset="1" stop-color="#fda0ff" stop-opacity="0"/></linearGradient><linearGradient id="SVGID_5_" gradientUnits="userSpaceOnUse" x1="176.296" x2="312.865" y1="489.041" y2="352.472"><stop offset="0" stop-color="#b31de7"/><stop offset=".3435" stop-color="#cd4bef"/><stop offset="1" stop-color="#fda0ff"/></linearGradient><linearGradient id="SVGID_6_" gradientUnits="userSpaceOnUse" x1="-16.165" x2="346.458" y1="386.844" y2="24.221"><stop offset="0" stop-color="#b31de7"/><stop offset=".3983" stop-color="#d153f1"/><stop offset="1" stop-color="#fda0ff"/></linearGradient><linearGradient id="SVGID_7_" gradientUnits="userSpaceOnUse" x1="37.412" x2="393.09" y1="504.47" y2="148.792"><stop offset="0" stop-color="#b31de7"/><stop offset=".3399" stop-color="#cf4ef0"/><stop offset=".7861" stop-color="#f089fb"/><stop offset="1" stop-color="#fda0ff"/></linearGradient><linearGradient id="SVGID_8_" gradientUnits="userSpaceOnUse" x1="141.797" x2="401.132" y1="355.803" y2="96.468"><stop offset="0" stop-color="#fc54ff"/><stop offset=".1022" stop-color="#fd77ff"/><stop offset=".2431" stop-color="#fda0ff"/><stop offset=".3875" stop-color="#fec3ff"/><stop offset=".5338" stop-color="#feddff"/><stop offset=".6827" stop-color="#fff0ff"/><stop offset=".8359" stop-color="#fffbff"/><stop offset="1" stop-color="#fff"/></linearGradient><linearGradient id="SVGID_9_" gradientUnits="userSpaceOnUse" x1="96.72" x2="377.09" y1="400.88" y2="120.51"><stop offset="0" stop-color="#fc54ff"/><stop offset=".4935" stop-color="#feaaff"/><stop offset="1" stop-color="#fff"/></linearGradient><linearGradient id="SVGID_10_" gradientUnits="userSpaceOnUse" x1="90.963" x2="269.631" y1="366.03" y2="187.362"><stop offset="0" stop-color="#fc54ff"/><stop offset=".8398" stop-color="#fda0ff"/></linearGradient><g><circle cx="256" cy="256" fill="url(#SVGID_1_)" r="256"/><circle cx="256" cy="256" fill="url(#SVGID_2_)" r="256"/><path d="m295.276 388.751c-3.401-10.668-6.846-21.345-10.322-32.028-9.594-10.209-19.255-20.447-28.954-30.697-9.699 10.25-19.359 20.488-28.954 30.697-3.477 10.684-6.921 21.361-10.322 32.028-2.665 8.345-10.268 13.923-18.912 13.825.043 2.557.088 5.113.133 7.67 38.704.456 77.407.456 116.111 0 .046-2.557.09-5.113.133-7.67-8.645.098-16.247-5.48-18.913-13.825z" fill="url(#SVGID_3_)"/><path d="m295.276 388.751c-3.401-10.668-6.846-21.345-10.322-32.028-9.594-10.209-19.255-20.447-28.954-30.697-9.699 10.25-19.359 20.488-28.954 30.697-3.477 10.684-6.921 21.361-10.322 32.028-2.665 8.345-10.268 13.923-18.912 13.825.043 2.557.088 5.113.133 7.67 38.704.456 77.407.456 116.111 0 .046-2.557.09-5.113.133-7.67-8.645.098-16.247-5.48-18.913-13.825z" fill="url(#SVGID_4_)"/><path d="m150.746 409.462c.139 4.212 3.614 7.704 7.754 7.792 65 1.361 130 1.361 195 0 4.14-.087 7.616-3.58 7.754-7.792.139-4.213-3.131-7.559-7.294-7.482-65.307 1.226-130.614 1.226-195.92 0-4.163-.076-7.433 3.27-7.294 7.482z" fill="url(#SVGID_5_)"/><path d="m88.5 111.738c-11.03.407-20.553 9.728-21.159 20.762-3.896 72.333-4.565 144.667-2.008 217 .398 11.034 9.868 20.246 21.043 20.535 30.38.758 60.761 1.312 91.141 1.662-1.543-87.442-1.216-174.885.983-262.327-30 .499-60 1.288-90 2.368z" fill="url(#SVGID_6_)"/><path d="m156.853 351.069c-1.33-73.653-.982-147.305 1.044-220.958.322-11.241 9.572-20.552 20.603-20.741 81.667-1.359 163.333-.57 245 2.368 11.03.407 20.553 9.728 21.159 20.762 3.896 72.333 4.565 144.667 2.008 217-.398 11.034-9.868 20.246-21.043 20.535-82.702 2.062-165.404 2.616-248.107 1.662-11.175-.134-20.452-9.388-20.664-20.628z" fill="url(#SVGID_7_)"/><path d="m125.608 310.118c-10.943-56.498-20.754-112.703-28.517-168.509 105.939-2.846 211.879-2.846 317.818 0 2.744 66.15 3.255 132.3 1.531 198.45-96.511-8.456-193.548-19.014-290.832-29.941z" fill="url(#SVGID_8_)"/><path d="m110.519 325.144c-5.641-28.488-10.967-56.893-15.862-85.203.263-32.777 1.074-65.554 2.434-98.331 91.418 81.74 205.644 154.856 319.349 198.45 0 .034-92.689 1.599-178.435 1.324-42.403-5.204-84.909-10.673-127.486-16.24z" fill="url(#SVGID_9_)"/><path d="m94.657 239.941c-.268 33.373.033 66.746.903 100.118 0 .005 69.799 1.238 142.445 1.324-30.213-52.257-82.307-90.401-143.348-101.442z" fill="url(#SVGID_10_)"/></g></svg>