<svg id="Capa_1" enable-background="new 0 0 512 512" height="512" viewBox="0 0 512 512" width="512" xmlns="http://www.w3.org/2000/svg" xmlns:xlink="http://www.w3.org/1999/xlink"><linearGradient id="SVGID_1_" gradientUnits="userSpaceOnUse" x1="74.98" x2="437.019" y1="437.019" y2="74.98"><stop offset="0" stop-color="#ff4747"/><stop offset="1" stop-color="#ff9ceb"/></linearGradient><radialGradient id="SVGID_2_" cx="255.058" cy="189.169" gradientUnits="userSpaceOnUse" r="256"><stop offset="0" stop-color="#ff2f2b"/><stop offset=".1068" stop-color="#ff3536" stop-opacity=".893"/><stop offset=".2923" stop-color="#ff4552" stop-opacity=".708"/><stop offset=".5342" stop-color="#ff5f80" stop-opacity=".466"/><stop offset=".8201" stop-color="#ff83c0" stop-opacity=".18"/><stop offset="1" stop-color="#ff9ceb" stop-opacity="0"/></radialGradient><radialGradient id="SVGID_3_" cx="255.058" cy="189.169" gradientUnits="userSpaceOnUse" r="256"><stop offset="0" stop-color="#fff" stop-opacity=".5"/><stop offset=".9944" stop-color="#ff9ceb" stop-opacity="0"/></radialGradient><linearGradient id="lg1"><stop offset="0" stop-color="#ff2f2b"/><stop offset="1" stop-color="#ff9ceb"/></linearGradient><linearGradient id="SVGID_4_" gradientUnits="userSpaceOnUse" x1="135.623" x2="593.347" xlink:href="#lg1" y1="362.156" y2="-95.568"/><linearGradient id="SVGID_5_" gradientUnits="userSpaceOnUse" x1="55.231" x2="573.683" xlink:href="#lg1" y1="454.362" y2="-64.09"/><linearGradient id="SVGID_6_" gradientUnits="userSpaceOnUse" x1="-67.644" x2="356.449" xlink:href="#lg1" y1="500.444" y2="76.351"/><linearGradient id="SVGID_7_" gradientUnits="userSpaceOnUse" x1="25.621" x2="361.286" xlink:href="#lg1" y1="408.001" y2="72.335"/><radialGradient id="SVGID_8_" cx="256" cy="176.163" gradientUnits="userSpaceOnUse" r="132.293"><stop offset="0" stop-color="#fff" stop-opacity=".5"/><stop offset=".2026" stop-color="#fff8fb" stop-opacity=".398"/><stop offset=".5052" stop-color="#ffe3ef" stop-opacity=".246"/><stop offset=".869" stop-color="#ffc2db" stop-opacity=".063"/><stop offset=".9944" stop-color="#ffb5d3" stop-opacity="0"/></radialGradient><linearGradient id="SVGID_9_" gradientUnits="userSpaceOnUse" x1="231.169" x2="484.743" xlink:href="#lg1" y1="348.782" y2="95.208"/><linearGradient id="SVGID_10_" gradientUnits="userSpaceOnUse" x1="179.925" x2="383.416" xlink:href="#lg1" y1="338.766" y2="135.275"/><linearGradient id="lg2"><stop offset="0" stop-color="#ffb5d3"/><stop offset=".4183" stop-color="#ffdbea"/><stop offset=".7836" stop-color="#fff5f9"/><stop offset="1" stop-color="#fff"/></linearGradient><linearGradient id="SVGID_11_" gradientUnits="userSpaceOnUse" x1="161.9" x2="293.617" xlink:href="#lg2" y1="296.001" y2="164.284"/><linearGradient id="SVGID_12_" gradientUnits="userSpaceOnUse" x1="179.223" x2="311.161" xlink:href="#lg2" y1="261.475" y2="129.538"/><linearGradient id="SVGID_13_" gradientUnits="userSpaceOnUse" x1="248.615" x2="447.682" xlink:href="#lg2" y1="485.397" y2="286.33"/><linearGradient id="SVGID_14_" gradientUnits="userSpaceOnUse" x1="205.868" x2="423.477" xlink:href="#lg2" y1="395.45" y2="177.841"/><linearGradient id="SVGID_15_" gradientUnits="userSpaceOnUse" x1="166.549" x2="465.205" xlink:href="#lg2" y1="618.625" y2="319.969"/><linearGradient id="SVGID_16_" gradientUnits="userSpaceOnUse" x1="163.222" x2="429.969" xlink:href="#lg2" y1="475.315" y2="208.568"/><g><circle cx="256" cy="256" fill="url(#SVGID_1_)" r="256"/><circle cx="256" cy="256" fill="url(#SVGID_2_)" r="256"/><circle cx="256" cy="256" fill="url(#SVGID_3_)" r="256"/><path d="m256 45.475c-69.907.226-129.358 61.049-130.409 131.564-.632 61.189-.189 122.379 1.328 183.568 86.054 2.807 172.108 2.807 258.162 0 1.517-61.189 1.96-122.379 1.328-183.568-1.051-70.518-60.503-131.34-130.409-131.564z" fill="url(#SVGID_4_)"/><path d="m156.275 176.675c-.403 51.448-.234 102.896.509 154.344 66.144 1.259 132.287 1.259 198.431 0 .743-51.448.912-102.896.509-154.344-66.482-.683-132.966-.683-199.449 0z" fill="url(#SVGID_5_)"/><path d="m355.725 176.675c.428 54.466-44.697 99.31-99.725 99.425-55.028-.11-100.153-44.959-99.725-99.425.59-54.448 45.715-100.352 99.725-100.45 54.01.098 99.135 46.002 99.725 100.45z" fill="url(#SVGID_6_)"/><path d="m271.373 245.347c-55.147-.066-100.105-44.715-99.496-99.362.102-9.881 1.671-19.437 4.468-28.494-12.379 16.721-19.898 37.172-20.069 59.183-.428 54.466 44.697 99.31 99.725 99.425 45.129-.027 83.542-30.34 95.727-71.101-18.119 24.309-47.411 40.337-80.355 40.349z" fill="url(#SVGID_7_)"/><path d="m355.725 176.675c.428 54.466-44.697 99.31-99.725 99.425-55.028-.11-100.153-44.959-99.725-99.425.59-54.448 45.715-100.352 99.725-100.45 54.01.098 99.135 46.002 99.725 100.45z" fill="url(#SVGID_8_)"/><path d="m217.644 285.762c.076 25.59.207 51.178.391 76.769 25.31.243 50.62.243 75.93 0 .184-25.59.314-51.179.391-76.769-12.755-10.186-25.548-20.425-38.356-30.674-12.807 10.25-25.601 20.488-38.356 30.674z" fill="url(#SVGID_9_)"/><path d="m217.565 239.7c.007 15.354.034 30.707.08 46.062 25.57.101 51.141.101 76.711 0 .046-15.355.073-30.708.08-46.062-12.807-10.228-25.627-20.488-38.435-30.738-12.809 10.251-25.629 20.51-38.436 30.738z" fill="url(#SVGID_10_)"/><path d="m256 137.725c-5.434 0-10.6 1.156-15.287 3.228 7.579 32.899 15.29 65.835 22.974 98.759 10.249-.001 20.499-.005 30.748-.012.01-21.154-.016-42.309-.08-63.462-.079-21.186-17.278-38.507-38.355-38.513z" fill="url(#SVGID_11_)"/><path d="m240.713 140.953c-13.501 5.968-23.018 19.555-23.069 35.286-.063 21.153-.09 42.309-.08 63.462 15.374.01 30.748.014 46.122.012.002-21.182-.003-42.363-.016-63.546-.012-15.757-9.478-29.316-22.957-35.214z" fill="url(#SVGID_12_)"/><path d="m386.009 315.22c-10.197.214-20.394.403-30.59.567-.342 27.924-.852 55.848-1.531 83.772 15.06-.49 30.119-1.092 45.179-1.807.812-22.603 1.459-45.203 1.941-67.806.18-8.314-6.549-14.896-14.999-14.726z" fill="url(#SVGID_13_)"/><path d="m355.419 315.787c-76.476 1.231-152.952 1.042-229.428-.567-8.449-.173-15.179 6.413-14.998 14.727.482 22.603 1.129 45.203 1.941 67.806 85.338 4.053 170.675 4.48 256.013 1.28.641-22.775 1.152-45.551 1.533-68.326.143-8.38-6.611-15.049-15.061-14.92z" fill="url(#SVGID_14_)"/><path d="m399.583 382.685c-10.076.433-20.152.821-30.228 1.164-.259 10.123-.544 20.245-.855 30.367 10-.411 20-.875 30-1.396 8.278-.435 15.288-7.545 15.626-15.821.337-8.273-6.191-14.667-14.543-14.314z" fill="url(#SVGID_15_)"/><path d="m384.006 398.431c.273-8.354-6.299-14.862-14.651-14.582-85.646 2.911-171.292 2.523-256.938-1.164-8.352-.353-14.879 6.036-14.542 14.315.336 8.279 7.348 15.382 15.626 15.821 85 4.418 170 4.884 255 1.396 8.276-.343 15.232-7.436 15.505-15.786z" fill="url(#SVGID_16_)"/></g></svg>