<svg id="Capa_1" enable-background="new 0 0 512 512" height="512" viewBox="0 0 512 512" width="512" xmlns="http://www.w3.org/2000/svg" xmlns:xlink="http://www.w3.org/1999/xlink"><linearGradient id="lg1"><stop offset="0" stop-color="#560dff"/><stop offset="1" stop-color="#73ecff"/></linearGradient><linearGradient id="SVGID_1_" gradientUnits="userSpaceOnUse" x1="74.98" x2="437.019" xlink:href="#lg1" y1="437.019" y2="74.98"/><radialGradient id="SVGID_2_" cx="256" cy="256" gradientUnits="userSpaceOnUse" r="256"><stop offset="0" stop-color="#6b23ea"/><stop offset="1" stop-color="#63bcf5" stop-opacity="0"/></radialGradient><linearGradient id="lg2"><stop offset="0" stop-color="#389fff"/><stop offset=".1139" stop-color="#45affa"/><stop offset=".5397" stop-color="#73e9e7"/><stop offset=".7447" stop-color="#85ffe0"/><stop offset=".8554" stop-color="#9dffe6"/><stop offset="1" stop-color="#c2fff0"/></linearGradient><linearGradient id="SVGID_3_" gradientUnits="userSpaceOnUse" x1="41.58" x2="411.232" xlink:href="#lg2" y1="344.048" y2="-25.604"/><linearGradient id="SVGID_4_" gradientUnits="userSpaceOnUse" x1="77.315" x2="525.652" xlink:href="#lg2" y1="583.985" y2="135.648"/><linearGradient id="SVGID_5_" gradientTransform="matrix(0 1 -1 0 512 0)" gradientUnits="userSpaceOnUse" x1="500.216" x2="-14.254" xlink:href="#lg2" y1="478.117" y2="-36.352"/><linearGradient id="SVGID_6_" gradientTransform="matrix(0 1 -1 0 512 0)" gradientUnits="userSpaceOnUse" x1="480.341" x2="94.486" xlink:href="#lg1" y1="367.59" y2="-18.266"/><linearGradient id="SVGID_7_" gradientTransform="matrix(0 1 -1 0 512 0)" gradientUnits="userSpaceOnUse" x1="277.464" x2="-201.589" xlink:href="#lg1" y1="487.499" y2="8.446"/><linearGradient id="SVGID_8_" gradientTransform="matrix(0 1 -1 0 512 0)" gradientUnits="userSpaceOnUse" x1="371.217" x2="-2.458" xlink:href="#lg1" y1="408.526" y2="34.852"/><linearGradient id="lg3"><stop offset="0" stop-color="#85ffe0"/><stop offset=".2339" stop-color="#9dffe6"/><stop offset=".7251" stop-color="#dafff6"/><stop offset="1" stop-color="#fff"/></linearGradient><linearGradient id="SVGID_9_" gradientTransform="matrix(0 1 -1 0 512 0)" gradientUnits="userSpaceOnUse" x1="277.026" x2="66.512" xlink:href="#lg3" y1="401.011" y2="190.498"/><linearGradient id="SVGID_10_" gradientTransform="matrix(0 1 -1 0 512 0)" gradientUnits="userSpaceOnUse" x1="454.89" x2="152.739" xlink:href="#lg3" y1="477.957" y2="175.806"/><linearGradient id="SVGID_11_" gradientTransform="matrix(0 1 -1 0 512 0)" gradientUnits="userSpaceOnUse" x1="322.593" x2="80.024" xlink:href="#lg2" y1="390.442" y2="147.872"/><linearGradient id="SVGID_12_" gradientTransform="matrix(0 1 -1 0 512 0)" gradientUnits="userSpaceOnUse" x1="366.389" x2="96.571" xlink:href="#lg2" y1="400.254" y2="130.435"/><linearGradient id="SVGID_13_" gradientTransform="matrix(0 1 -1 0 512 0)" gradientUnits="userSpaceOnUse" x1="373.104" x2="228.43" xlink:href="#lg3" y1="249.283" y2="104.609"/><g><circle cx="256" cy="256" fill="url(#SVGID_1_)" r="256"/><circle cx="256" cy="256" fill="url(#SVGID_2_)" r="256"/><path d="m97.5 127.566c-16.527.494-30.991 14.392-31.957 30.934-.283 5-.544 10-.783 15 9.787 7.281 19.679 14.639 29.654 22.061-10.414 7.688-20.828 15.34-31.22 22.939-.978 45-.196 90 2.348 135 .966 16.541 15.43 30.44 31.957 30.934 25 .711 50 1.254 75 1.628-2.783-86.708-2.783-173.416 0-260.124-24.999.375-49.999.918-74.999 1.628z" fill="url(#SVGID_3_)"/><path d="m414.5 127.566c-10-.284-20-.542-30-.772 4.283 86.138 4.283 172.275 0 258.413 10-.231 20-.488 30-.772 16.527-.494 30.991-14.395 31.957-30.934 2.544-45 3.327-90 2.348-135-10.391-7.6-20.806-15.251-31.22-22.939 9.975-7.421 19.868-14.78 29.654-22.061-.239-5-.5-10-.783-15-.965-16.542-15.429-30.44-31.956-30.935z" fill="url(#SVGID_4_)"/><path d="m384.5 126.794c-70.667-1.629-141.333-1.914-212-.856-16.529.259-30.583 14.193-31.178 31.008-2.212 66.036-2.212 132.072 0 198.108.595 16.817 14.649 30.747 31.178 31.008 70.667 1.059 141.333.773 212-.856 16.528-.401 30.828-14.323 31.645-30.992 3.09-65.476 3.09-130.952 0-196.428-.817-16.668-15.117-30.59-31.645-30.992z" fill="url(#SVGID_5_)"/><path d="m447.239 173.5c-10.145-.219-20.291-.42-30.436-.604-9.844 7.371-19.786 14.809-29.802 22.301 10.373 7.709 20.753 15.39 31.119 23.028 10.228.084 20.457.175 30.685.275-.326-15-.848-30-1.566-45z" fill="url(#SVGID_6_)"/><path d="m64.761 173.5c-.717 15-1.239 30-1.565 45 25.571-.249 51.142-.448 76.713-.597 10.327-7.68 20.657-15.387 30.967-23.108-10.079-7.58-20.095-15.121-30.024-22.609-25.365.329-50.728.767-76.091 1.314z" fill="url(#SVGID_7_)"/><path d="m416.803 172.896c-91.984-1.668-183.969-1.905-275.953-.71-.432 15.239-.746 30.478-.943 45.717 92.737-.543 185.475-.436 278.212.323-.273-15.11-.712-30.22-1.316-45.33z" fill="url(#SVGID_8_)"/><path d="m108.925 248.422c-.033 10.105 0 20.21.099 30.315 10.242.045 20.484.086 30.727.122 5.082-5.061 10.182-10.136 15.295-15.222-5.136-5.096-10.262-10.182-15.374-15.256-10.249.012-20.498.025-30.747.041z" fill="url(#SVGID_9_)"/><path d="m139.672 248.381c-.026 10.159 0 20.319.079 30.478 57.015.2 114.03.253 171.045.158.037-10.23.049-20.46.037-30.689-57.054-.031-114.107-.014-171.161.053z" fill="url(#SVGID_10_)"/><path d="m109.359 301.473c.199 10.105.463 20.21.794 30.315.138 4.185 3.669 7.634 7.87 7.7 7.609.118 15.218.227 22.827.326 4.857-7.553 9.771-15.13 14.732-22.724-5.234-7.678-10.463-15.344-15.675-22.993-7.671-.045-15.343-.094-23.014-.148-4.236-.028-7.617 3.34-7.534 7.524z" fill="url(#SVGID_11_)"/><path d="m139.908 294.098c.196 15.239.511 30.478.943 45.717 12.682.165 25.363.302 38.045.412 4.201.038 7.549-3.367 7.485-7.6-.158-10.217-.284-20.434-.379-30.651-.039-4.232-3.499-7.676-7.736-7.691-12.787-.05-25.573-.112-38.358-.187z" fill="url(#SVGID_12_)"/><path d="m402.976 278.736c.099-10.105.132-20.21.099-30.315-20.498-.031-40.997-.054-61.495-.072.019 10.201 0 20.402-.058 30.603 20.485-.052 40.969-.124 61.454-.216z" fill="url(#SVGID_13_)"/></g></svg>