<svg id="Capa_1" enable-background="new 0 0 512 512" height="512" viewBox="0 0 512 512" width="512" xmlns="http://www.w3.org/2000/svg" xmlns:xlink="http://www.w3.org/1999/xlink"><linearGradient id="SVGID_1_" gradientUnits="userSpaceOnUse" x1="74.98" x2="437.019" y1="437.019" y2="74.98"><stop offset="0" stop-color="#8d00db"/><stop offset="1" stop-color="#ff91bb"/></linearGradient><radialGradient id="SVGID_2_" cx="257.013" cy="311.774" gradientUnits="userSpaceOnUse" r="315.289"><stop offset="0" stop-color="#8d00db"/><stop offset=".0695" stop-color="#9909df" stop-opacity=".929"/><stop offset=".3528" stop-color="#c329ed" stop-opacity=".638"/><stop offset=".6083" stop-color="#e241f7" stop-opacity=".376"/><stop offset=".8245" stop-color="#f54ffd" stop-opacity=".155"/><stop offset=".9755" stop-color="#fc54ff" stop-opacity="0"/></radialGradient><linearGradient id="lg1"><stop offset="0" stop-color="#b31de7"/><stop offset=".3219" stop-color="#cd4bef"/><stop offset=".7811" stop-color="#f088fb"/><stop offset="1" stop-color="#fda0ff"/></linearGradient><linearGradient id="SVGID_3_" gradientUnits="userSpaceOnUse" x1="282.333" x2="522.538" xlink:href="#lg1" y1="211.376" y2="-28.829"/><linearGradient id="SVGID_4_" gradientUnits="userSpaceOnUse" x1="347.301" x2="347.301" y1="208.077" y2="24.798"><stop offset="0" stop-color="#8d00db"/><stop offset=".0449" stop-color="#a00ee1" stop-opacity=".955"/><stop offset=".1285" stop-color="#bc24ea" stop-opacity=".872"/><stop offset=".2227" stop-color="#d436f2" stop-opacity=".777"/><stop offset=".3298" stop-color="#e643f8" stop-opacity=".67"/><stop offset=".4576" stop-color="#f34dfc" stop-opacity=".542"/><stop offset=".6267" stop-color="#fa52fe" stop-opacity=".373"/><stop offset="1" stop-color="#fc54ff" stop-opacity="0"/></linearGradient><linearGradient id="lg2"><stop offset="0" stop-color="#fda0ff"/><stop offset=".0066" stop-color="#fda1ff"/><stop offset=".4632" stop-color="#fed4ff"/><stop offset=".8084" stop-color="#fff3ff"/><stop offset="1" stop-color="#fff"/></linearGradient><linearGradient id="SVGID_5_" gradientUnits="userSpaceOnUse" x1="202.42" x2="462.676" xlink:href="#lg2" y1="348.834" y2="88.578"/><linearGradient id="SVGID_6_" gradientUnits="userSpaceOnUse" x1="109.005" x2="479.879" xlink:href="#lg2" y1="288.39" y2="-82.485"/><linearGradient id="SVGID_7_" gradientUnits="userSpaceOnUse" x1="89.755" x2="519.559" xlink:href="#lg2" y1="392.09" y2="-37.714"/><linearGradient id="SVGID_8_" gradientUnits="userSpaceOnUse" x1="184.682" x2="540.971" xlink:href="#lg2" y1="564.085" y2="207.796"/><linearGradient id="SVGID_9_" gradientUnits="userSpaceOnUse" x1="99.551" x2="568.463" xlink:href="#lg2" y1="504.297" y2="35.385"/><linearGradient id="lg3"><stop offset="0" stop-color="#fc54ff"/><stop offset=".1964" stop-color="#fd80ff"/><stop offset=".4669" stop-color="#feb6ff"/><stop offset=".7008" stop-color="#fedeff"/><stop offset=".8862" stop-color="#fff6ff"/><stop offset="1" stop-color="#fff"/></linearGradient><linearGradient id="SVGID_10_" gradientUnits="userSpaceOnUse" x1="66.061" x2="432.888" xlink:href="#lg3" y1="281.754" y2="-85.073"/><linearGradient id="SVGID_11_" gradientUnits="userSpaceOnUse" x1="110.968" x2="536.885" xlink:href="#lg3" y1="408.985" y2="-16.932"/><linearGradient id="SVGID_12_" gradientUnits="userSpaceOnUse" x1="259.344" x2="478.078" xlink:href="#lg3" y1="443.088" y2="224.353"/><linearGradient id="SVGID_13_" gradientUnits="userSpaceOnUse" x1="295.025" x2="439.936" xlink:href="#lg3" y1="407.697" y2="262.786"/><linearGradient id="SVGID_14_" gradientUnits="userSpaceOnUse" x1="132.351" x2="384.264" xlink:href="#lg1" y1="272.794" y2="20.88"/><linearGradient id="SVGID_15_" gradientUnits="userSpaceOnUse" x1="169.18" x2="509.602" xlink:href="#lg1" y1="462.233" y2="121.81"/><linearGradient id="SVGID_16_" gradientUnits="userSpaceOnUse" x1="107.441" x2="514.26" y1="404.965" y2="-1.854"><stop offset="0" stop-color="#b31de7"/><stop offset=".3215" stop-color="#cd4bef"/><stop offset=".7801" stop-color="#f088fb"/><stop offset=".9987" stop-color="#fda0ff"/></linearGradient><g><circle cx="256" cy="256" fill="url(#SVGID_1_)" r="256"/><circle cx="256" cy="256" fill="url(#SVGID_2_)" r="256"/><path d="m338.666 60.127c1.246 58.608 1.878 117.216 1.896 175.824 5.125.002 10.25.004 15.375.006-.021-58.478-.768-116.955-2.241-175.433-.108-4.211-3.557-7.727-7.696-7.843-4.141-.117-7.422 3.225-7.334 7.446z" fill="url(#SVGID_3_)"/><path d="m338.666 60.127c1.246 58.608 1.878 117.216 1.896 175.824 5.125.002 10.25.004 15.375.006-.021-58.478-.768-116.955-2.241-175.433-.108-4.211-3.557-7.727-7.696-7.843-4.141-.117-7.422 3.225-7.334 7.446z" fill="url(#SVGID_4_)"/><path d="m385.366 119.668c-10.146-.252-20.293-.474-30.439-.667 25.071.517 46.161 21.531 46.573 46.424.233 15.119.393 30.238.481 45.357 10.215-4.974 20.416-9.905 30.597-14.781-.11-10-.259-20-.447-30-.491-24.684-21.694-45.66-46.765-46.333z" fill="url(#SVGID_5_)"/><path d="m354.927 119.001c-76.098-1.444-152.195-1.221-228.293.667-25.07.672-46.274 21.648-46.766 46.332-.188 10-.337 20-.447 30 10.181 4.877 20.382 9.808 30.597 14.781.088-15.119.249-30.238.481-45.357.13-8.344 7.105-15.257 15.546-15.417 86.637-1.594 173.273-1.594 259.909 0 8.441.162 15.414 7.072 15.546 15.417-.526-32.045-5.682-45.56-46.573-46.423z" fill="url(#SVGID_6_)"/><path d="m140.777 271.467c-20.484-.123-40.968-.279-61.453-.467.295 35 1.065 70 2.311 105 .933 24.785 22.075 46.049 46.865 47.07 20 .782 40 1.38 60 1.794-15.925-51.369-32.086-102.587-47.723-153.397z" fill="url(#SVGID_7_)"/><path d="m401.95 271.258c-15.711 50.514-32.114 101.547-48.45 152.847 10-.299 20-.644 30-1.035 24.791-1.022 45.931-22.283 46.865-47.07 1.246-35 2.017-70 2.311-105-10.242.094-20.484.18-30.726.258z" fill="url(#SVGID_8_)"/><path d="m400.04 377.092c1.029-35.278 1.666-70.556 1.909-105.833-87.058.661-174.115.731-261.173.209.192 35.503.694 71.005 1.507 106.508.626 25.164 21.425 46.347 46.216 46.888 55 1.139 110 .886 165-.759 24.791-.782 45.761-22.02 46.541-47.013z" fill="url(#SVGID_9_)"/><path d="m79.421 196c-.275 25-.307 50-.097 75 20.484.188 40.968.344 61.453.467 15.294-12.588 30.656-25.3 46.037-38.073-15.368-12.756-30.709-25.446-45.974-38.005-20.473.161-40.945.365-61.419.611z" fill="url(#SVGID_10_)"/><path d="m140.84 195.39c-.18 25.359-.201 50.719-.063 76.078 97.3.584 194.599.428 291.899-.467.21-25 .178-50-.097-75-97.246-1.171-194.493-1.375-291.739-.611z" fill="url(#SVGID_11_)"/><path d="m400.826 346.853c-.61 24.994-21.604 46.08-46.591 46.741-24.993.65-45.046-19.727-44.878-45.156.188-25.435 20.874-46.144 46.294-46.375 25.418-.208 45.775 19.789 45.175 44.79z" fill="url(#SVGID_12_)"/><path d="m362.135 378.164c-25.079.634-45.187-19.716-45.02-45.131.035-4.344.681-8.555 1.835-12.545-5.945 7.779-9.507 17.467-9.592 27.951-.167 25.429 19.886 45.806 44.878 45.156 20.729-.53 38.646-15.155 44.564-34.333-8.619 11.096-21.912 18.543-36.665 18.902z" fill="url(#SVGID_13_)"/><path d="m171.484 210.47c-25.611.095-51.222.234-76.833.416-.098 15.063-.115 30.125-.053 45.188 51.238.232 102.477.352 153.715.364-25.621-15.381-51.269-30.774-76.829-45.968z" fill="url(#SVGID_14_)"/><path d="m386.615 210.688c-10.205 7.526-20.435 15.107-30.679 22.727 10.256 7.636 20.5 15.236 30.723 22.783 10.248-.038 20.495-.079 30.743-.125.062-15.063.044-30.125-.053-45.188-10.245-.072-20.489-.138-30.734-.197z" fill="url(#SVGID_15_)"/><path d="m171.484 210.47c14.716 28.122 44.87 45.958 76.83 45.967 46.114.01 92.229-.07 138.344-.239.05-15.17.036-30.341-.043-45.51-71.71-.412-143.42-.485-215.131-.218z" fill="url(#SVGID_16_)"/></g></svg>