<svg id="Capa_1" enable-background="new 0 0 512 512" height="512" viewBox="0 0 512 512" width="512" xmlns="http://www.w3.org/2000/svg"><g id="XMLID_1676_"><g id="XMLID_381_"><g id="XMLID_382_"><path id="XMLID_451_" d="m502 352.704c-4.818 0-9.58.238-14.282.687-11.173-20.817-24.143-40.805-38.658-59.48-3.389-4.36-9.672-5.148-14.032-1.759s-5.148 9.671-1.759 14.032c12.439 16.004 23.679 33.024 33.564 50.714-15.13 3.667-29.37 9.637-42.318 17.53-28.764-56.948-71.25-106.251-123.511-143.235-4.759-9.359-10.784-18.065-17.949-25.861h35.044c18.972 11.073 37.167 23.775 54.098 37.816 1.866 1.548 4.128 2.303 6.378 2.303 2.873 0 5.725-1.232 7.703-3.617 3.526-4.251 2.938-10.555-1.313-14.081-9.516-7.892-19.416-15.377-29.612-22.421h85.981c3.681 0 7.065-2.022 8.808-5.265s1.563-7.181-.467-10.251c-21.556-32.59-57.751-52.047-96.825-52.047h-8.366c-6.147 0-12.222.483-18.181 1.422l67.838-67.838c2.603-2.604 3.566-6.426 2.505-9.952-1.06-3.525-3.972-6.183-7.579-6.918-38.285-7.803-77.638 4.034-105.268 31.662l-5.916 5.916c-4.36 4.36-8.324 9.014-11.882 13.908v-95.969c0-3.682-2.022-7.065-5.265-8.808-3.243-1.742-7.181-1.563-10.251.467-32.59 21.555-52.046 57.751-52.046 96.824v8.366c0 12.717 2.074 25.125 5.978 36.828-11.719-3.891-24.038-5.907-36.565-5.907h-8.366c-39.073 0-75.27 19.457-96.824 52.047-2.031 3.071-2.21 7.009-.467 10.251 1.743 3.243 5.126 5.265 8.808 5.265h95.588c-4.892 3.558-9.532 7.499-13.859 11.826l-5.916 5.916c-27.629 27.629-39.465 66.981-31.662 105.268.735 3.607 3.393 6.519 6.918 7.579.948.285 1.917.424 2.879.424 2.614 0 5.169-1.026 7.072-2.929l113.999-114v161.249c0 3.681 2.023 7.065 5.265 8.808 1.483.797 3.11 1.192 4.734 1.192 1.928 0 3.851-.557 5.517-1.659 32.59-21.555 52.046-57.751 52.046-96.824v-8.366c0-6.428-.527-12.777-1.553-18.996 40.08 33.238 72.857 74.612 95.962 121.29-20.262 16.468-36.135 38.129-45.578 62.94-6.475-2.378-12.373-6.134-17.343-11.105-1.875-1.875-4.419-2.929-7.071-2.929s-5.196 1.054-7.071 2.929c-9.064 9.063-21.113 14.054-33.93 14.054s-24.866-4.991-33.929-14.054c-1.875-1.875-4.419-2.929-7.071-2.929s-5.196 1.054-7.071 2.929c-9.063 9.063-21.112 14.054-33.929 14.054s-24.866-4.991-33.929-14.054c-1.875-1.875-4.419-2.929-7.071-2.929s-5.196 1.054-7.071 2.929c-9.063 9.063-21.112 14.054-33.929 14.054s-24.866-4.991-33.929-14.054c-1.875-1.875-4.419-2.929-7.071-2.929s-5.196 1.054-7.071 2.929c-9.063 9.063-21.112 14.054-33.929 14.054s-24.866-4.991-33.929-14.054c-3.906-3.906-10.237-3.904-14.142 0-3.905 3.905-3.906 10.237 0 14.142 12.84 12.84 29.912 19.912 48.071 19.912 14.999 0 29.256-4.824 41-13.739 11.744 8.915 26.001 13.739 41 13.739s29.256-4.824 41-13.739c11.744 8.915 26.001 13.739 41 13.739s29.256-4.824 41-13.739c11.744 8.915 26.001 13.739 41 13.739 15 0 29.258-4.825 41.002-13.741 5.644 4.279 11.894 7.621 18.562 9.944-2.524 10.863-3.859 22.177-3.859 33.797 0 5.523 4.477 10 10 10s10-4.477 10-10c0-71.294 58.001-129.295 129.295-129.295 5.523 0 10-4.477 10-10 0-5.524-4.477-10.001-10-10.001zm-409.897-167.371c17.775-17.515 41.836-27.563 67.381-27.563h8.366c18.011 0 35.506 5.021 50.764 14.52 3.124 4.574 6.578 8.936 10.353 13.043zm40.698 119.02c.184-24.954 10.092-49.072 28.155-67.135l5.915-5.916c13.104-13.103 29.574-22.062 47.675-25.969h17.274zm113.199-152.397c-1.278 6.58-1.998 13.284-2.115 20.046-16.203-17.533-25.448-40.657-25.448-65.152v-8.366c0-25.545 10.048-49.605 27.563-67.38zm98.483 5.814h8.366c25.545 0 49.605 10.048 67.381 27.563h-143.128c17.776-17.515 41.836-27.563 67.381-27.563zm-52.458-51.565 5.916-5.916c18.065-18.065 42.179-27.973 67.135-28.155l-85.335 85.335c-5.602 3.766-10.89 8.027-15.79 12.755.951-23.839 10.764-46.709 28.074-64.019zm1.558 185.978c0 25.545-10.048 49.605-27.563 67.38v-143.127c17.515 17.775 27.563 41.835 27.563 67.38z"/><path id="XMLID_383_" d="m404.59 259.01c-1.86 1.86-2.93 4.44-2.93 7.07s1.07 5.21 2.93 7.07 4.44 2.93 7.07 2.93 5.21-1.07 7.07-2.93 2.93-4.44 2.93-7.07-1.07-5.21-2.93-7.07-4.44-2.93-7.07-2.93c-2.63-.001-5.21 1.07-7.07 2.93z"/></g></g></g></svg>